<?xml version="1.0" standalone="no"?>
<!DOCTYPE svg PUBLIC "-//W3C//DTD SVG 20010904//EN"
 "http://www.w3.org/TR/2001/REC-SVG-20010904/DTD/svg10.dtd">
<svg version="1.0" xmlns="http://www.w3.org/2000/svg"
 width="512.000000pt" height="512.000000pt" viewBox="0 0 512.000000 512.000000"
 preserveAspectRatio="xMidYMid meet">
<metadata>
Created by potrace 1.14, written by Peter Selinger 2001-2017
</metadata>
<g transform="translate(0.000000,512.000000) scale(0.100000,-0.100000)"
fill="#000000" stroke="none">
<path d="M2424 5058 c-26 -29 -83 -90 -125 -136 l-78 -84 -143 85 c-79 46
-153 89 -165 96 -21 10 -26 3 -114 -151 -50 -90 -92 -164 -94 -166 -1 -1 -82
23 -181 53 -98 30 -181 51 -185 47 -3 -4 -28 -85 -55 -181 l-49 -173 -120 6
c-66 3 -152 9 -191 12 l-72 7 -6 -149 c-9 -200 -13 -232 -34 -238 -9 -2 -92
-17 -184 -32 -99 -16 -168 -32 -168 -38 0 -6 14 -86 31 -178 17 -92 29 -174
26 -181 -3 -7 -78 -44 -168 -82 -90 -37 -166 -69 -168 -71 -5 -4 11 -45 82
-205 l65 -147 -154 -112 c-102 -74 -151 -116 -146 -124 7 -9 180 -237 214
-282 5 -7 -37 -64 -116 -157 l-124 -145 144 -118 c79 -65 144 -122 144 -126 0
-5 -36 -80 -80 -168 -44 -88 -80 -164 -80 -168 0 -5 74 -44 165 -87 91 -44
165 -84 165 -89 0 -6 -18 -89 -41 -184 -23 -95 -39 -175 -36 -179 3 -3 86 -24
184 -47 l178 -41 0 -190 0 -190 190 0 190 0 41 -178 c23 -98 45 -181 48 -184
3 -4 84 12 179 35 94 23 177 42 183 42 5 0 45 -74 89 -165 43 -91 82 -165 87
-165 4 0 80 36 168 80 88 44 163 80 167 80 5 0 62 -65 127 -144 l118 -144 146
124 c92 79 149 121 156 116 38 -29 273 -207 282 -214 8 -6 48 41 124 146 l113
154 146 -65 c160 -71 201 -87 205 -82 2 2 34 78 72 168 38 90 74 166 81 168 7
3 89 -9 182 -26 93 -17 173 -31 179 -31 5 0 22 79 38 175 15 97 31 181 35 187
6 10 194 25 338 27 l44 1 -6 63 c-4 34 -9 121 -13 192 l-6 130 173 49 c96 27
177 52 181 55 4 4 -17 87 -47 185 -30 99 -54 180 -53 181 2 1 76 44 166 94 89
51 161 95 159 99 -2 4 -46 78 -96 165 l-93 158 84 77 c45 43 107 100 136 126
28 27 52 53 52 58 0 5 -57 67 -126 139 -81 82 -124 134 -121 144 4 8 47 75 97
150 50 75 93 142 96 149 3 8 -52 50 -151 114 -85 56 -155 105 -155 109 0 4 29
85 64 178 42 114 59 172 52 176 -6 4 -85 33 -176 65 -91 32 -167 59 -168 60
-2 1 6 76 17 167 12 90 21 175 21 189 l0 25 -177 18 c-98 10 -183 22 -189 26
-6 5 -19 90 -29 189 l-19 180 -24 0 c-14 0 -99 -9 -189 -21 -91 -11 -166 -19
-167 -17 -1 1 -29 77 -61 168 -32 91 -60 170 -64 176 -4 8 -62 -10 -175 -52
-93 -35 -173 -64 -178 -64 -5 0 -54 70 -110 155 -64 99 -106 154 -114 151 -7
-3 -74 -46 -149 -96 -75 -50 -143 -94 -151 -97 -9 -3 -59 39 -143 121 -71 69
-133 126 -138 126 -6 0 -32 -24 -59 -52z m1411 -1364 c23 -9 45 -57 45 -98 0
-42 5 -38 -225 -141 -83 -36 -154 -70 -158 -75 -5 -4 10 -50 33 -101 24 -52
49 -108 56 -126 l14 -32 97 45 c54 24 110 44 125 44 33 0 68 -41 68 -81 0 -36
-26 -56 -138 -104 -72 -30 -89 -42 -84 -55 32 -78 108 -240 114 -240 3 0 86
36 184 80 97 44 189 80 204 80 32 0 57 -25 70 -71 12 -41 -6 -73 -53 -93 -17
-8 -128 -57 -246 -110 -118 -53 -227 -96 -242 -96 -19 0 -34 8 -43 23 -8 12
-101 214 -206 449 -209 469 -206 456 -136 492 76 40 473 215 488 215 9 1 24
-2 33 -5z m-1151 -527 c9 -7 91 -179 182 -382 91 -204 169 -374 173 -378 4 -4
80 24 169 64 176 79 200 82 227 29 8 -16 15 -45 15 -64 0 -42 11 -36 -269
-160 -106 -47 -203 -86 -215 -86 -12 0 -29 6 -38 13 -20 16 -398 862 -398 891
0 27 23 49 70 70 43 19 61 20 84 3z m-630 -273 c15 -6 612 -681 648 -733 29
-41 -13 -110 -80 -132 -35 -11 -36 -11 -76 32 -23 24 -57 63 -77 87 l-35 43
-144 -65 c-80 -35 -146 -71 -148 -78 -1 -7 4 -55 11 -107 14 -91 14 -94 -8
-118 -29 -35 -110 -44 -143 -16 -22 17 -27 44 -84 507 -60 486 -60 488 -41
515 36 49 129 83 177 65z m-613 -343 c25 -30 25 -102 2 -123 -11 -10 -47 -17
-96 -21 -159 -11 -264 -98 -227 -188 21 -51 58 -62 220 -66 80 -2 166 -8 192
-14 100 -23 179 -100 219 -215 63 -180 -42 -345 -265 -413 -198 -61 -362 17
-304 144 15 33 48 41 110 26 81 -18 138 -14 197 15 84 42 114 117 74 185 -30
50 -71 62 -248 70 -166 7 -204 16 -267 56 -103 68 -147 225 -94 338 59 126
259 239 410 231 47 -2 63 -7 77 -25z"/>
<path d="M2050 2642 c0 -12 60 -415 63 -423 2 -7 195 76 210 90 4 5 -55 83
-133 175 -77 92 -140 163 -140 158z"/>
</g>
</svg>
