<!DOCTYPE svg PUBLIC "-//W3C//DTD SVG 1.1//EN" "http://www.w3.org/Graphics/SVG/1.1/DTD/svg11.dtd">
<!-- Uploaded to: SVG Repo, www.svgrepo.com, Transformed by: SVG Repo Mixer Tools -->
<svg fill="#ffffff" height="800px" width="800px" version="1.1" id="Layer_1" xmlns="http://www.w3.org/2000/svg" xmlns:xlink="http://www.w3.org/1999/xlink" viewBox="0 0 511.999 511.999" xml:space="preserve" stroke="#ffffff">
<g id="SVGRepo_bgCarrier" stroke-width="0"/>
<g id="SVGRepo_tracerCarrier" stroke-linecap="round" stroke-linejoin="round"/>
<g id="SVGRepo_iconCarrier"> <g> <g> <path d="M505.933,85.853c-4.864-5.743-12.006-9.054-19.533-9.054H12.8c-7.074,0-12.8,5.726-12.8,12.8 c0,7.074,5.726,12.8,12.8,12.8h140.45l-4.267,25.6H89.6c-7.074,0-12.8,5.726-12.8,12.8c0,7.074,5.726,12.8,12.8,12.8h55.117 l-4.267,25.6H38.4c-7.074,0-12.8,5.726-12.8,12.8s5.726,12.8,12.8,12.8h97.783l-4.267,25.6H115.2c-7.074,0-12.8,5.726-12.8,12.8 s5.726,12.8,12.8,12.8h12.45l-4.267,25.6H64c-7.074,0-12.8,5.726-12.8,12.8c0,7.074,5.726,12.8,12.8,12.8h55.117l-16.367,98.193 c-1.237,7.424,0.853,15.01,5.717,20.753c4.864,5.743,12.006,9.054,19.533,9.054h307.2c12.51,0,23.194-9.045,25.25-21.393 l51.2-307.2C512.888,99.182,510.797,91.596,505.933,85.853z M307.2,102.399h51.2l-12.8,76.8h-51.2L307.2,102.399z M307.2,409.599 H256l12.8-76.8H320L307.2,409.599z M435.2,409.599H333.15l12.1-72.593c1.237-7.424-0.853-15.01-5.717-20.753 c-4.864-5.743-12.006-9.054-19.533-9.054h-51.2c-12.51,0-23.194,9.045-25.25,21.393l-13.15,81.007H128l17.067-102.4H217.6 c7.074,0,12.8-5.726,12.8-12.8c0-7.074-5.726-12.8-12.8-12.8h-68.267l4.267-25.6H192c7.074,0,12.8-5.726,12.8-12.8 s-5.726-12.8-12.8-12.8h-34.133l4.267-25.6H217.6c7.074,0,12.8-5.726,12.8-12.8s-5.726-12.8-12.8-12.8h-51.2l4.267-25.6H243.2 c7.074,0,12.8-5.726,12.8-12.8c0-7.074-5.726-12.8-12.8-12.8h-68.267l4.267-25.6h102.05l-12.1,72.593 c-1.237,7.424,0.853,15.01,5.717,20.753c4.864,5.743,12.006,9.054,19.533,9.054h51.2c12.51,0,23.194-9.045,25.25-21.393 L384,102.399h102.4L435.2,409.599z"/> </g> </g> </g>
</svg>